<mxfile host="app.diagrams.net" agent="Mozilla/5.0 (Macintosh; Intel Mac OS X 10_15_7) AppleWebKit/537.36 (KHTML, like Gecko) Chrome/127.0.0.0 Safari/537.36" version="24.7.6">
  <diagram name="Page-1" id="d_lKacz_I8V2Ok1XWE2l">
    <mxGraphModel dx="954" dy="556" grid="1" gridSize="10" guides="1" tooltips="1" connect="1" arrows="1" fold="1" page="1" pageScale="1" pageWidth="850" pageHeight="1100" math="0" shadow="0">
      <root>
        <mxCell id="0" />
        <mxCell id="1" parent="0" />
        <mxCell id="EUOBFGdnlfz-_86akROT-1" value="AWS Official OS Image(x86_64)&lt;div&gt;&lt;br&gt;&lt;/div&gt;&lt;div&gt;&lt;b&gt;delete_on_termination: true&lt;/b&gt;&lt;br&gt;&lt;/div&gt;" style="rounded=1;whiteSpace=wrap;html=1;" vertex="1" parent="1">
          <mxGeometry x="110" y="160" width="170" height="80" as="geometry" />
        </mxCell>
        <mxCell id="EUOBFGdnlfz-_86akROT-4" value="SRE Provided OS Image(x86_64)&lt;div&gt;&lt;br&gt;&lt;/div&gt;&lt;div&gt;&lt;b&gt;delete_on_termination: true&lt;/b&gt;&lt;br&gt;&lt;/div&gt;" style="rounded=1;whiteSpace=wrap;html=1;" vertex="1" parent="1">
          <mxGeometry x="110" y="280" width="170" height="80" as="geometry" />
        </mxCell>
        <mxCell id="EUOBFGdnlfz-_86akROT-5" value="SRE Provided OS Image(arm64)&lt;div&gt;&lt;br&gt;&lt;/div&gt;&lt;div&gt;&lt;b&gt;delete_on_termination: &lt;font color=&quot;#ff0000&quot;&gt;false&lt;/font&gt;&lt;/b&gt;&lt;br&gt;&lt;/div&gt;" style="rounded=1;whiteSpace=wrap;html=1;" vertex="1" parent="1">
          <mxGeometry x="320" y="280" width="170" height="80" as="geometry" />
        </mxCell>
        <mxCell id="EUOBFGdnlfz-_86akROT-6" value="Packon Provided Container Host OS Image(x86_64)&lt;div&gt;&lt;br&gt;&lt;/div&gt;&lt;div&gt;&lt;b&gt;delete_on_termination: true&lt;/b&gt;&lt;br&gt;&lt;/div&gt;" style="rounded=1;whiteSpace=wrap;html=1;" vertex="1" parent="1">
          <mxGeometry x="110" y="400" width="170" height="80" as="geometry" />
        </mxCell>
        <mxCell id="EUOBFGdnlfz-_86akROT-7" value="Packon Provided Container Host OS Image(arm64)&lt;div&gt;&lt;br&gt;&lt;/div&gt;&lt;div&gt;&lt;b&gt;delete_on_termination: &lt;font color=&quot;#cc0000&quot;&gt;false&lt;/font&gt;&lt;/b&gt;&lt;br&gt;&lt;/div&gt;" style="rounded=1;whiteSpace=wrap;html=1;" vertex="1" parent="1">
          <mxGeometry x="320" y="400" width="170" height="80" as="geometry" />
        </mxCell>
        <mxCell id="EUOBFGdnlfz-_86akROT-9" value="AWS Official OS Image(x86_64)&lt;div&gt;&lt;br&gt;&lt;/div&gt;&lt;div&gt;&lt;b&gt;delete_on_termination: true&lt;/b&gt;&lt;br&gt;&lt;/div&gt;" style="rounded=1;whiteSpace=wrap;html=1;" vertex="1" parent="1">
          <mxGeometry x="320" y="160" width="170" height="80" as="geometry" />
        </mxCell>
        <mxCell id="EUOBFGdnlfz-_86akROT-10" value="" style="endArrow=classic;html=1;rounded=0;exitX=0.5;exitY=1;exitDx=0;exitDy=0;" edge="1" parent="1" source="EUOBFGdnlfz-_86akROT-1" target="EUOBFGdnlfz-_86akROT-4">
          <mxGeometry width="50" height="50" relative="1" as="geometry">
            <mxPoint x="410" y="400" as="sourcePoint" />
            <mxPoint x="460" y="350" as="targetPoint" />
          </mxGeometry>
        </mxCell>
        <mxCell id="EUOBFGdnlfz-_86akROT-11" value="" style="endArrow=classic;html=1;rounded=0;exitX=0.5;exitY=1;exitDx=0;exitDy=0;entryX=0.5;entryY=0;entryDx=0;entryDy=0;" edge="1" parent="1" source="EUOBFGdnlfz-_86akROT-9" target="EUOBFGdnlfz-_86akROT-5">
          <mxGeometry width="50" height="50" relative="1" as="geometry">
            <mxPoint x="410" y="400" as="sourcePoint" />
            <mxPoint x="460" y="350" as="targetPoint" />
          </mxGeometry>
        </mxCell>
        <mxCell id="EUOBFGdnlfz-_86akROT-13" value="" style="endArrow=classic;html=1;rounded=0;exitX=0.5;exitY=1;exitDx=0;exitDy=0;" edge="1" parent="1">
          <mxGeometry width="50" height="50" relative="1" as="geometry">
            <mxPoint x="194.5" y="360" as="sourcePoint" />
            <mxPoint x="194.5" y="400" as="targetPoint" />
          </mxGeometry>
        </mxCell>
        <mxCell id="EUOBFGdnlfz-_86akROT-14" value="" style="endArrow=classic;html=1;rounded=0;" edge="1" parent="1">
          <mxGeometry width="50" height="50" relative="1" as="geometry">
            <mxPoint x="404.5" y="360" as="sourcePoint" />
            <mxPoint x="404.5" y="400" as="targetPoint" />
          </mxGeometry>
        </mxCell>
        <mxCell id="EUOBFGdnlfz-_86akROT-16" value="EC2 Instance(x86_64)&lt;div&gt;&lt;br&gt;&lt;/div&gt;&lt;div&gt;&lt;b&gt;delete_on_termination: true&lt;/b&gt;&lt;br&gt;&lt;/div&gt;" style="rounded=1;whiteSpace=wrap;html=1;fillColor=#dae8fc;strokeColor=#6c8ebf;" vertex="1" parent="1">
          <mxGeometry x="110" y="520" width="170" height="80" as="geometry" />
        </mxCell>
        <mxCell id="EUOBFGdnlfz-_86akROT-17" value="EC2 Instance(arm64)&lt;div&gt;&lt;br&gt;&lt;/div&gt;&lt;div&gt;&lt;b&gt;delete_on_termination: &lt;font color=&quot;#ff0000&quot;&gt;false&lt;/font&gt;&lt;/b&gt;&lt;br&gt;&lt;/div&gt;" style="rounded=1;whiteSpace=wrap;html=1;fillColor=#dae8fc;strokeColor=#6c8ebf;" vertex="1" parent="1">
          <mxGeometry x="320" y="520" width="170" height="80" as="geometry" />
        </mxCell>
        <mxCell id="EUOBFGdnlfz-_86akROT-18" value="" style="endArrow=classic;html=1;rounded=0;exitX=0.5;exitY=1;exitDx=0;exitDy=0;entryX=0.5;entryY=0;entryDx=0;entryDy=0;" edge="1" parent="1" source="EUOBFGdnlfz-_86akROT-6" target="EUOBFGdnlfz-_86akROT-16">
          <mxGeometry width="50" height="50" relative="1" as="geometry">
            <mxPoint x="410" y="400" as="sourcePoint" />
            <mxPoint x="460" y="350" as="targetPoint" />
          </mxGeometry>
        </mxCell>
        <mxCell id="EUOBFGdnlfz-_86akROT-20" value="" style="endArrow=classic;html=1;rounded=0;" edge="1" parent="1">
          <mxGeometry width="50" height="50" relative="1" as="geometry">
            <mxPoint x="404.5" y="480" as="sourcePoint" />
            <mxPoint x="404.5" y="520" as="targetPoint" />
          </mxGeometry>
        </mxCell>
      </root>
    </mxGraphModel>
  </diagram>
</mxfile>
